<svg xmlns="http://www.w3.org/2000/svg" viewBox="0 0 1600 1200" role="img" aria-label="Soft background with a faded map of Japan and Mt. Fuji scenery">
  <defs>
    <filter id="blurSoft" x="-20%" y="-20%" width="140%" height="140%">
      <feGaussianBlur stdDeviation="10"/>
    </filter>
    <linearGradient id="mist" x1="0%" y1="0%" x2="100%" y2="0%">
      <stop offset="0%" stop-color="#ffffff" stop-opacity="0.74"/>
      <stop offset="55%" stop-color="#ffffff" stop-opacity="0.18"/>
      <stop offset="100%" stop-color="#ffffff" stop-opacity="0"/>
    </linearGradient>
    <radialGradient id="sun" cx="50%" cy="50%" r="50%">
      <stop offset="0%" stop-color="#d96a5e" stop-opacity="0.2"/>
      <stop offset="70%" stop-color="#d96a5e" stop-opacity="0.08"/>
      <stop offset="100%" stop-color="#d96a5e" stop-opacity="0"/>
    </radialGradient>
    <linearGradient id="fujiBase" x1="0%" y1="0%" x2="100%" y2="100%">
      <stop offset="0%" stop-color="#dce3dd" stop-opacity="0.56"/>
      <stop offset="100%" stop-color="#c9d5ce" stop-opacity="0.44"/>
    </linearGradient>
    <linearGradient id="hills" x1="0%" y1="0%" x2="100%" y2="100%">
      <stop offset="0%" stop-color="#e7ece7" stop-opacity="0.62"/>
      <stop offset="100%" stop-color="#d9e0da" stop-opacity="0.44"/>
    </linearGradient>
  </defs>

  <circle cx="1188" cy="214" r="186" fill="url(#sun)"/>

  <g opacity="0.34" filter="url(#blurSoft)" transform="translate(820 174)">
    <path d="M422 26C460 14 506 26 530 60C550 90 548 126 524 150C494 180 438 180 404 150C374 122 372 74 394 46C402 34 410 30 422 26Z" fill="#d8d9d4"/>
    <path d="M328 180C354 160 386 170 400 198C414 224 404 250 380 264C360 276 330 274 314 258C300 244 298 216 312 194C316 188 322 184 328 180Z" fill="#d8d9d4"/>
    <path d="M256 224C288 212 326 224 354 250C382 276 398 306 408 340C418 376 438 396 470 406C492 414 500 434 490 452C476 478 432 488 384 474C334 458 286 422 250 378C214 334 194 284 198 254C200 238 224 230 256 224Z" fill="#d8d9d4"/>
    <path d="M182 474C216 456 258 466 286 494C306 512 312 542 298 562C286 578 264 584 236 578C204 570 176 550 162 524C152 504 158 486 182 474Z" fill="#d8d9d4"/>
    <path d="M106 536C122 530 140 536 152 550C164 564 164 582 152 592C138 604 114 602 96 588C82 576 78 560 86 548C90 542 98 538 106 536Z" fill="#d8d9d4"/>
    <circle cx="34" cy="630" r="10" fill="#d8d9d4"/>
    <circle cx="64" cy="646" r="7" fill="#d8d9d4"/>
    <circle cx="86" cy="664" r="5" fill="#d8d9d4"/>
  </g>

  <g opacity="0.32">
    <path d="M0 876C158 808 312 798 470 832C588 856 700 908 842 900C992 890 1108 824 1238 804C1368 784 1488 806 1600 860V1200H0Z" fill="url(#hills)"/>
    <path d="M0 948C154 906 320 906 492 944C658 980 816 992 986 962C1114 940 1266 922 1600 970V1200H0Z" fill="#eef2ed" opacity="0.7"/>
  </g>

  <g transform="translate(238 676)" opacity="0.56">
    <path d="M0 212L112 92L224 212Z" fill="url(#fujiBase)"/>
    <path d="M62 150L112 92L162 150Z" fill="#ffffff" fill-opacity="0.82"/>
    <ellipse cx="112" cy="228" rx="194" ry="36" fill="url(#mist)" opacity="0.8"/>
  </g>

  <g opacity="0.32">
    <path d="M122 186C170 204 212 244 248 306" fill="none" stroke="#cb8d82" stroke-width="10" stroke-linecap="round"/>
    <circle cx="138" cy="192" r="18" fill="#eed5d7"/>
    <circle cx="164" cy="210" r="14" fill="#f2dfe0"/>
    <circle cx="192" cy="232" r="16" fill="#eed5d7"/>
    <circle cx="220" cy="258" r="13" fill="#f2dfe0"/>
    <circle cx="246" cy="290" r="12" fill="#eed5d7"/>
  </g>

  <ellipse cx="364" cy="786" rx="420" ry="84" fill="url(#mist)" opacity="0.74"/>
  <ellipse cx="1118" cy="676" rx="360" ry="74" fill="url(#mist)" opacity="0.52"/>
</svg>
