<svg xmlns="http://www.w3.org/2000/svg" viewBox="0 0 960 720" role="img" aria-labelledby="title desc">
  <title id="title">Save hotel pins guide</title>
  <desc id="desc">A phone map with hotel pins and a bookmarked route.</desc>
  <defs>
    <linearGradient id="bg" x1="0" x2="1" y1="0" y2="1">
      <stop offset="0%" stop-color="#1f5f6b"/>
      <stop offset="100%" stop-color="#0f232c"/>
    </linearGradient>
  </defs>
  <rect width="960" height="720" rx="42" fill="url(#bg)"/>
  <rect x="266" y="88" width="428" height="544" rx="42" fill="#fff8ef"/>
  <rect x="304" y="142" width="352" height="400" rx="28" fill="#d9ebee"/>
  <path d="M340 210h280M340 280h210M340 350h246M340 420h188" fill="none" stroke="#fff8ef" opacity=".44" stroke-linecap="round" stroke-width="18"/>
  <circle cx="564" cy="250" r="20" fill="#b55447"/>
  <path d="M564 220c20 0 36 16 36 36 0 26-36 64-36 64s-36-38-36-64c0-20 16-36 36-36Z" fill="#b55447"/>
  <circle cx="564" cy="256" r="10" fill="#fff8ef"/>
  <path d="M430 468c40-74 144-54 166 6" fill="none" stroke="#1f5f6b" stroke-linecap="round" stroke-width="16"/>
  <rect x="356" y="564" width="248" height="24" rx="12" fill="#eadbc1"/>
  <text x="122" y="624" fill="#fff8ef" font-family="Arial, sans-serif" font-size="54" font-weight="700">Save Hotel Pins</text>
  <text x="122" y="668" fill="#d5e3e6" font-family="Arial, sans-serif" font-size="28">Keep the address, route, and meet point easy to reopen.</text>
</svg>
