<svg xmlns="http://www.w3.org/2000/svg" viewBox="0 0 1200 720" role="img" aria-labelledby="title desc"><title id="title">Japan trip route preview</title><desc id="desc">Static preview of the Osaka to Tokyo route used before the live map loads.</desc><defs><linearGradient id="bg" x1="0" y1="0" x2="1" y2="1"><stop offset="0%" stop-color="#fbf6ef"/><stop offset="55%" stop-color="#efe3d6"/><stop offset="100%" stop-color="#e6d7ca"/></linearGradient><linearGradient id="routeGlow" x1="0" y1="0" x2="1" y2="1"><stop offset="0%" stop-color="#d97e69"/><stop offset="100%" stop-color="#8d3a2f"/></linearGradient><filter id="softGlow" x="-20%" y="-20%" width="140%" height="140%"><feGaussianBlur stdDeviation="10"/></filter></defs><rect width="1200" height="720" fill="url(#bg)" rx="36"/><g opacity="0.4"><path d="M180 596 C290 508, 376 478, 478 398 S646 272, 776 200 S958 116, 1068 92" fill="none" stroke="#d8c5b4" stroke-width="118" stroke-linecap="round"/><path d="M198 608 C306 520, 398 486, 506 406 S668 286, 792 216 S972 136, 1086 114" fill="none" stroke="#f8efe5" stroke-width="78" stroke-linecap="round"/></g><g opacity="0.34"><line x1="92" y1="120" x2="1108" y2="120" stroke="#ccb8a8" stroke-width="1" stroke-dasharray="6 10"/><line x1="92" y1="204" x2="1108" y2="204" stroke="#ccb8a8" stroke-width="1" stroke-dasharray="6 10"/><line x1="92" y1="288" x2="1108" y2="288" stroke="#ccb8a8" stroke-width="1" stroke-dasharray="6 10"/><line x1="92" y1="372" x2="1108" y2="372" stroke="#ccb8a8" stroke-width="1" stroke-dasharray="6 10"/><line x1="92" y1="456" x2="1108" y2="456" stroke="#ccb8a8" stroke-width="1" stroke-dasharray="6 10"/><line x1="92" y1="540" x2="1108" y2="540" stroke="#ccb8a8" stroke-width="1" stroke-dasharray="6 10"/><line x1="120" y1="92" x2="120" y2="628" stroke="#d5c4b6" stroke-width="1" stroke-dasharray="6 12"/><line x1="260" y1="92" x2="260" y2="628" stroke="#d5c4b6" stroke-width="1" stroke-dasharray="6 12"/><line x1="400" y1="92" x2="400" y2="628" stroke="#d5c4b6" stroke-width="1" stroke-dasharray="6 12"/><line x1="540" y1="92" x2="540" y2="628" stroke="#d5c4b6" stroke-width="1" stroke-dasharray="6 12"/><line x1="680" y1="92" x2="680" y2="628" stroke="#d5c4b6" stroke-width="1" stroke-dasharray="6 12"/><line x1="820" y1="92" x2="820" y2="628" stroke="#d5c4b6" stroke-width="1" stroke-dasharray="6 12"/><line x1="960" y1="92" x2="960" y2="628" stroke="#d5c4b6" stroke-width="1" stroke-dasharray="6 12"/></g><g filter="url(#softGlow)" opacity="0.42"><path d="M 129.8 575.7 L 130.3 575.9 L 130.4 575.5 L 130.9 576 L 131.1 575.7 L 131.3 575.8 L 131.5 575.8 L 131.7 575.7 L 131.7 575.5 L 131.7 575.1 L 131.7 574.4 L 131.9 574.3 L 132.4 574.3 L 132.9 574.4 L 133.3 574.4 L 133.7 574.3 L 134 574.2 L 134.7 574.2 L 134.9 574.3 L 135.1 574.3 L 135.6 574.2 L 136 574 L 136.3 573.9 L 136.6 573.8 L 136.9 573.7 L 137.4 573.5 L 138 573.3 L 138.5 573.2 L 139 573.1 L 139.6 573.1 L 140 573 L 140.3 572.9 L 140.9 572.8 L 141.7 572.6 L 142.5 572.4 L 142.7 571.7 L 142.8 570.6 L 142.8 570.1 L 142.8 570 L 143.1 570 L 143.5 570 L 143.6 570 L 144.3 570 L 144.5 569.9 L 144.8 569.8 L 145.2 569.6 L 145.4 569.5 L 146 569.2 L 146.9 568.6 L 147.8 567.8 L 148.7 566.9 L 149.3 566.4 L 149.7 566 L 150.7 565 L 151.4 564.1 L 152.2 561.8 L 153.5 558.9 L 155.2 555.7 L 156.1 554.4 L 157.7 552.8 L 159.7 550.4 L 161.4 548.8 L 162.3 547.7 L 163 546 L 164.5 543.3 L 166.5 539.9 L 168.2 538 L 169.6 537.1 L 171.2 536.1 L 171.8 535.5 L 174.4 531.5 L 175.1 530.1 L 176.3 527.4 L 178.3 522.7 L 179 521 L 179.3 519.7 L 179.5 518.2 L 179.5 514 L 179.5 511.9 L 179.6 511.1 L 179.8 510.2 L 180.4 509.1 L 181.2 507.8 L 181.8 506.5 L 181.9 505.5 L 182 503.3 L 182.1 502.5 L 182.5 501.7 L 183.9 498.8 L 185 496.7 L 185.2 495.7 L 185.2 490 L 185.3 484.4 L 185.4 480 L 185.6 474.6 L 185.7 472.4 L 185.8 467.7 L 185.8 465.3 L 185.9 461.9 L 186 460.5 L 186.1 457.8 L 186.3 457.4 L 186.6 457.2 L 187.1 457.3 L 187.4 457.2 L 187.6 456.8 L 188 455.9 L 188.2 455.2 L 188.3 455 L 188.3 454.9 L 188.3 454.8 L 188.3 454.8 L 188.2 454.8 L 188.1 454.9 L 188.2 455.1 L 188.2 455.2 L 188.3 455.2 L 188.5 454.6 L 188.5 453.9 L 188.6 453 L 188.6 452.7 L 188.8 451.8 L 189.5 451.6 L 189.6 451 L 189.6 450.7 L 189.6 450.3 L 189.5 449 L 189.5 448.4 L 189.4 447.8 L 189.4 446.7 L 189.5 445.6 L 189.6 445 L 189.9 443.6 L 190.3 442 L 190.4 441.4 L 190.4 440.3 L 190.4 439.4 L 190.4 438.4 L 189.7 438.4 L 189.5 437.9 L 189.5 437.9 L 189.3 437.3 L 189.6 437.4 L 190.2 437.4 L 190.5 437.9 L 190.5 438.7 L 190.5 439.6 L 190.4 440.8 L 190.4 441.4 L 190.3 441.8 L 190.2 442.4 L 189.9 443.6 L 189.6 445 L 189.5 445.5 L 189.4 446.8 L 189.5 447.7 L 189.5 448.1 L 189.5 448.8 L 189.6 449.8 L 189.6 450.5 L 189.6 450.9 L 189.5 451.4 L 189.1 451.6 L 188.8 451.8 L 188.6 452.7 L 188.6 453.2 L 188.5 453.9 L 188.5 454.6 L 188.3 455.3 L 187.9 456.2 L 187.6 456.8 L 187.4 457.1 L 187.1 457.3 L 186.7 457.2 L 186.4 457.3 L 186.2 457.8 L 186.1 458.8 L 186 461.3 L 185.9 462.9 L 185.9 464.8 L 185.8 467.7 L 185.7 472.4 L 185.5 475.4 L 185.4 478.6 L 185.4 482.8 L 185.3 487.3 L 185.2 495.6 L 185.1 496.5 L 184.7 497.5 L 183.3 500.2 L 182.3 502 L 182.1 502.9 L 182 503.5 L 181.9 506 L 181.7 506.8 L 181 508.2 L 180.3 509.4 L 179.8 510.5 L 179.6 511.3 L 179.5 512.5 L 179.5 514.6 L 179.5 518.7 L 179.3 520 L 178.9 521.4 L 177.7 524.1 L 176.2 527.8 L 175.1 530.3 L 174.3 531.7 L 172.8 534 L 171.3 536 L 170 536.9 L 168.2 538 L 167 539.3 L 163.6 544.8 L 162.3 547.6 L 161.8 548.4 L 160 550.2 L 158.1 552.5 L 156.4 554.1 L 155.2 555.7 L 153.9 558.1 L 152.6 560.9 L 151.6 563.7 L 151.1 564.8 L 150.7 565.2 L 150.2 565.6 L 149.7 566.1 L 149.3 566.4 L 148.9 566.9 L 147.6 568.1 L 147 568.7 L 146.6 569 L 146 569.4 L 145.3 569.7 L 144.9 569.9 L 144.6 570 L 144.4 570.1 L 143.6 570.1 L 143.4 570.1 L 143 570.1 L 142.9 570.1 L 142.9 570.1 L 142.8 570.1 L 142.8 570.7 L 142.8 571.8 L 142.6 572.4 L 141.9 572.6 L 141 572.8 L 140.5 572.9 L 140.1 573 L 139.6 573.1 L 139.1 573.1 L 138.8 573.2 L 138.4 573.2 L 137.6 573.5 L 137.2 573.6 L 136.7 573.8 L 136.4 573.9 L 136.1 574 L 135.6 574.2 L 135.2 574.4 L 134.8 574.3 L 134.1 574.2 L 133.8 574.3 L 133.4 574.5 L 133.3 574.5 L 132.9 574.5 L 132.5 574.4 L 131.8 574.3 L 131.5 574.3 L 131 574.2 L 130.6 574.2 L 130 574.1 L 129.6 574 L 129.1 574 L 128.8 574 L 128.6 574 L 128.2 573.9 L 128.2 573.4 L 128 573.5 L 128 573.5 L 128 573.5 L 128 573.5 L 128.1 573.5 L 128.2 573.4 L 128.2 573.4 L 128.2 573.4 L 128.2 573.4 L 128.2 573.1 L 128.3 573.1 L 128.3 572.9 L 128.3 572.9 L 128.5 572.7 L 128.5 572.7 L 128.5 572.6 L 128.6 572.5 L 128.8 572.4 L 128.8 572.4 L 128.9 572.4 L 128.9 572.4 L 129 572.4 L 129 572.4 L 129.1 572.3 L 129.1 572.2 L 129.1 572.1 L 129.2 572.1 L 129.3 571.8 L 129.4 571.8 L 129.4 571.7 L 129.4 571.7 L 129.5 571.6 L 129.5 571.6 L 129.5 571.6 L 129.5 571.5 L 129.5 571.5 L 129.6 571.5 L 129.6 571.4 L 129.6 571.1 L 129.5 571.1 L 129.5 571 L 129.5 571 L 129.5 570.9 L 129.5 570.9 L 129.4 570.8 L 129.4 570.8 L 129.4 570.7 L 129.4 570.6 L 129.3 570.5 L 129.3 570.5 L 129.3 570.4 L 129.3 570.4 L 129.3 570.3 L 129.3 570.2 L 129.3 570.1 L 129.3 570 L 129.3 569.8 L 129.3 569.7 L 129.3 569.6 L 129.3 569.6 L 129.3 569.6 L 129.3 569.3 L 129.3 569.2 L 129.3 569.2 L 129.3 569.1 L 129.3 569 L 129.3 568.7 L 129.3 568.4 L 129.3 568.4 L 129.2 568.2 L 129.2 567.9 L 129.2 567 L 129.2 566.3 L 129.2 566 L 129.2 565.8 L 129.2 565.7 L 129.1 565.2 L 129.1 565 L 129.1 564.9 L 129.1 564.7 L 129 564.1 L 129 563.4 L 129 563.3 L 128.9 563 L 128.9 562.9 L 128.9 562.5 L 128.9 562.4 L 128.9 562.4 L 128.9 562.2 L 128.9 561.7 L 128.9 561.1 L 128.9 560.9 L 128.9 560.2 L 128.9 560.2 L 128.9 560.1 L 128.9 560 L 128.9 560 L 128.9 559.9 L 129 559.9 L 129 559.8 L 129 559.8 L 129 559.7 L 129 559.7 L 129 559.5 L 129 559.2 L 129 559.2 L 129 559.2 L 129 559.1 L 129 559.1 L 129.1 559 L 129.3 558.9 L 129.3 558.9 L 129.4 558.9 L 129.4 558.9 L 129.4 558.9 L 129.4 558.9 L 129.4 558.9 L 129.4 558.9 L 129.4 558.9 L 129.4 559 L 129.4 559 L 129.4 559 L 129.4 559.1 L 129.4 559.1 L 129.4 559.2 L 129.4 559.3 L 129.4 559.3 L 129.3 559.4 L 129.3 559.4 L 129.3 559.4 L 129.3 559.3 L 129.2 559.2 L 129.2 559.2 L 129.2 559.1 L 129.4 559 L 129.4 559 L 129.4 558.9 L 129.4 558.9 L 129.5 558.8 L 129.5 558.7 L 129.5 558.7 L 129.5 558.7 L 130.2 555.3 L 130.8 552.5 L 132.4 548.5 L 134.3 544.7 L 135.8 541.9 L 137 538.4 L 138.9 535.2 L 141 532.2 L 142 527.3 L 142.3 523.3 L 142.8 517.3 L 142.9 515.6 L 155.1 500.9 L 159.8 502.4 L 163 499.5 L 167.2 488.8 L 174.7 483.2 L 177.4 471.9 L 178.9 467.6 L 185.8 462.1 L 196 461.5 L 204 450.3 L 207.6 446.4 L 211.7 444 L 215.9 454.5 L 224.1 456.7 L 231.4 450.8 L 232.9 452.5 L 232.8 456.9 L 235.7 460.9 L 241.3 459.8 L 249.1 468.8 L 254.9 473.5 L 263.8 476.4 L 275.5 479.8 L 284.6 481.1 L 292.7 475.5 L 302 476.9 L 312.6 479.6 L 331.7 479.4 L 343.7 464.5 L 347.7 445.2 L 352.9 433.5 L 367.6 425.7 L 378.1 421.7 L 383.7 427.1 L 387.2 430.9 L 390.6 430.7 L 395.4 433.6 L 401.6 431.5 L 419.7 420.8 L 437.8 419.5 L 445.8 421.5 L 453.1 422.1 L 456.6 423.7 L 462.6 424.5 L 467.8 425.9 L 470.8 423.7 L 474.3 424.8 L 485 436.3 L 491.2 437.9 L 498 435.4 L 503.4 428.3 L 508.8 424.1 L 515.6 428 L 517.8 439.4 L 521.3 452.8 L 524.1 465.5 L 529.9 479.6 L 549.6 493.4 L 561.7 491.6 L 569.7 482 L 578 477.4 L 584.2 474.6 L 592.3 477.8 L 604.4 483.7 L 611.6 490.8 L 619.1 501.3 L 633.5 510.7 L 644.4 512.8 L 654.1 516 L 661.9 518.6 L 670.1 518.9 L 679.3 518.4 L 691.2 510.8 L 700 512.3 L 714.6 510.1 L 724.1 504 L 739 492.5 L 747.1 484.5 L 753 473.4 L 758.3 447.5 L 767.5 435.3 L 774.2 426.7 L 781.7 423.9 L 791 415.6 L 796.2 407.1 L 801.1 392.6 L 807.3 382.9 L 813.9 374.9 L 827.5 367.1 L 836.1 357.1 L 845.4 356 L 853.9 362.4 L 862.4 372.4 L 873.7 376.6 L 882 377.1 L 888.4 372.3 L 891.2 359.3 L 891.1 347 L 895.8 335.3 L 896.2 328.3 L 899.2 320.1 L 904.7 315.2 L 908.3 307.1 L 910 297.6 L 912.4 292.1 L 914.6 289.3 L 918 291.3 L 921.4 286.6 L 924.8 287.1 L 932.5 285.5 L 935.5 284.9 L 938.4 283.6 L 939.8 286.6 L 944.9 290.5 L 949.3 291.8 L 951.6 294.1 L 950.6 293.2 L 949.9 295.5 L 950.2 305.7 L 948.9 309.1 L 949 312.8 L 949.9 318 L 951.1 320.8 L 952 325.2 L 952.3 328.1 L 951.5 330.5 L 950.7 332.2 L 950.7 332.2 L 950.7 332.3 L 950.7 332.3 L 950.6 332.5 L 950.6 332.5 L 950.6 332.7 L 950.6 332.9 L 950.6 333 L 950.6 333.1 L 950.5 333.5 L 950.5 333.5 L 950.6 333.5 L 950.7 333.6 L 950.4 334.2 L 950.3 334.6 L 950 335.6 L 949.9 335.8 L 949.8 336.2 L 949.8 336.2 L 949.7 336.2 L 949.5 336.3 L 949.4 336.3 L 949.3 336.4 L 949.2 336.4 L 949.2 336.4 L 949.1 336.4 L 949.1 336.5 L 948.9 336.5 L 948.9 336.5 L 948.7 336.5 L 948.7 336.5 L 948.6 336.5 L 948.5 336.5 L 948.5 336.5 L 948.4 336.4 L 948.3 336.4 L 948.1 336.3 L 947.8 336.1 L 947.7 336.1 L 947.7 336.1 L 947.7 336 L 947.6 336 L 947.5 336 L 947.5 336 L 947.2 336.1 L 947.1 336.1 L 946.9 336.1 L 946.8 336.2 L 946.6 336.2 L 946.5 336.2 L 946.1 336 L 946.1 336 L 946 336 L 945.8 336.1 L 945.7 336.2 L 945.7 336.2 L 945.7 336.2 L 945.6 336.3 L 945.4 336.5 L 945.3 336.6 L 945.3 336.7 L 945.1 336.9 L 945.1 336.9 L 945 337 L 944.9 337.1 L 944.9 337.1 L 944.9 337.2 L 944.9 337.2 L 944.9 337.2 L 944.8 337.3 L 944.8 337.3 L 944.8 337.4 L 944.8 337.5 L 944.8 337.6 L 944.7 337.6 L 944.7 337.7 L 944.6 337.7 L 944.5 337.9 L 944.4 338 L 944.3 338.1 L 944.2 338.1 L 944.1 338.2 L 944.1 338.3 L 944.1 338.3 L 944 338.4 L 944 338.6 L 943.9 338.8 L 943.8 338.9 L 943.8 339 L 943.7 339.2 L 943.7 339.3 L 943.6 339.5 L 943.4 339.7 L 943.3 340 L 943.1 340.1 L 943.1 340.2 L 943 340.3 L 942.8 340.5 L 942.7 340.6 L 942.6 340.7 L 942.6 340.8 L 942.4 340.9 L 942.3 340.9 L 942.1 341 L 942 341.1 L 941.8 341.1 L 941.8 341.2 L 941.6 341.4 L 941.5 341.5 L 941.4 341.6 L 941.3 341.6 L 941.3 341.6 L 941.2 341.6 L 941 341.8 L 940.9 341.8 L 940.9 341.8 L 940.8 341.8 L 940.7 341.8 L 940.6 341.7 L 940.6 341.7 L 940.6 341.7 L 940.5 341.6 L 940.4 341.6 L 940.4 341.6 L 940.3 341.6 L 940 341.7 L 939.9 341.7 L 939.9 341.7 L 939.8 341.7 L 939.7 341.8 L 939.7 341.8 L 939.7 341.8 L 939.6 341.8 L 939.6 341.8 L 939.6 341.9 L 939.5 341.9 L 939.5 341.9 L 939.4 342.1 L 939.4 342.2 L 939.4 342.2 L 938.8 342.6 L 938.4 342.4 L 938 342.1 L 937.6 342.2 L 937.4 342 L 937.2 342 L 937 342.2 L 936.6 342.2 L 936.2 342.1 L 935.7 342 L 935.6 341.5 L 935.4 341.4 L 935 342.1 L 934.7 342.1 L 934.5 342 L 934.4 341.7 L 934.5 341.4 L 934.4 341.4 L 934.4 341.5 L 934 341.7 L 933.5 341.6 L 933.5 341.3 L 933.3 341.2 L 933.2 341.6 L 933 341.1 L 932.5 340.7 L 932.4 340 L 932.1 339.8 L 931.9 340.1 L 931.7 339.8 L 931.4 339.5 L 931.2 339.6 L 931 338.9 L 930.7 338.3 L 930.5 338.2 L 930.2 337.7 L 929.7 337.2 L 929.4 336.8 L 929.2 336.8 L 929 336.6 L 928.7 336.5 L 928.1 336 L 928.1 334.6 L 927.9 334 L 927.5 333 L 926.8 331.8 L 926.2 331.6 L 925.8 331.5 L 925.3 331.2 L 925 330.4 L 924.4 330.7 L 924 330.8 L 923.5 330.6 L 923 330.4 L 922.3 329.5 L 922 329.2 L 921.8 328.8 L 921.4 328.6 L 920.7 327.9 L 919.7 326.9 L 919 325.6 L 918.8 324.8 L 918.1 323.9 L 917.5 323.6 L 916.6 322.7 L 916 322.5 L 915.6 322.9 L 914.9 323 L 914.1 325.2 L 914 325 L 914.4 322.5 L 912.5 320.3 L 912 320.6 L 911.9 320.3 L 912.1 320 L 911.8 319.5 L 911.9 319.1 L 911.8 318.6 L 911.4 317.6 L 911.3 317.8 L 911.5 318.6 L 910.9 318.3 L 910.8 318.9 L 910.7 318.4 L 910.9 317.9 L 910.5 317.5 L 910.3 316.7 L 910.1 316.7 L 910 317.8 L 909.4 317.9 L 909.3 318.3 L 908.8 318.1 L 908.1 317.9 L 907.7 318.3 L 907.3 317.9 L 907.1 318.8 L 906.9 319.3 L 906 318.9 L 905.1 318.6 L 904.5 316.8 L 903.4 314.5 L 902.1 312 L 900.4 310.4 L 899.3 309.4 L 898.7 308.4 L 898.5 307.3 L 897.2 305.3 L 896.3 304.3 L 895.6 303.9 L 894.6 302.1 L 893.6 300 L 891.8 297.1 L 891 295.6 L 889.1 292.8 L 887.8 289.5 L 885.9 286.9 L 884.5 286 L 883 286 L 882.6 285.8 L 882.1 285.1 L 882 283.8 L 882.3 282.2 L 881.9 280.4 L 879.7 266.9 L 879.9 264.8 L 880.5 260.5 L 880 256.9 L 879.2 255.5 L 877.8 254.4 L 872.2 248.7 L 869.6 246 L 867.1 244.4 L 865.9 242.1 L 864.9 238.4 L 864.8 236.7 L 864.9 234.2 L 861.9 233.6 L 861.5 231.8 L 862.2 230.8 L 862.2 230.8 L 863.9 231.4 L 865.5 232.5 L 865.7 231.3 L 866.4 230.5 L 868.1 229.5 L 869.9 227.6 L 872.2 226.3 L 874.2 224.6 L 875.9 224.3 L 877.4 224.2 L 878.5 223.1 L 879.5 221 L 881.1 219.3 L 882.7 216.8 L 884 213.3 L 885.2 211.6 L 887 210.3 L 888.8 208.6 L 891.9 207.2 L 893.1 205.2 L 895 199.9 L 896.6 197.7 L 900.5 192.9 L 900.7 191.6 L 899.8 190 L 899.3 188.6 L 898.9 186 L 897.7 183.8 L 897.4 182 L 898 181.2 L 899 180.2 L 900.2 179.7 L 900.8 178.6 L 901.5 176.1 L 903 174.6 L 904.9 174.6 L 907.4 176 L 908.8 176 L 910.1 175.2 L 911.7 175 L 913.5 174 L 914.7 174.3 L 916.2 176.4 L 917.9 178.3 L 919.6 178.1 L 925.3 173 L 926.3 170.2 L 927.4 168.7 L 929.3 168.5 L 931.1 168.4 L 932.5 168.7 L 934.4 169 L 936.1 168.5 L 937.4 168.6 L 938.5 169.6 L 940 171.8 L 941.5 173.4 L 943 173.5 L 944.8 173.1 L 945.8 173.3 L 947 173.7 L 947.8 174.1 L 948.4 175.1 L 949.7 175.7 L 951.1 175.7 L 952.2 176 L 953.2 175 L 954.2 173.1 L 955.1 173 L 957.3 174.4 L 958.8 174.9 L 959.8 174 L 961 172.7 L 961.7 170.9 L 962.6 168.1 L 965.3 165.9 L 968.2 165.3 L 969.9 165.4 L 971.1 165.2 L 972.5 165.1 L 973.4 165.3 L 974.9 164.9 L 975.7 164 L 975.8 162 L 976.4 159.7 L 977.9 158.3 L 980.6 155.8 L 983 154.1 L 984.9 152.2 L 986.8 149.9 L 988.3 149.3 L 990.2 149.5 L 993.3 149.4 L 995.8 150.2 L 997.9 150.4 L 1000.4 148.4 L 1002.4 148 L 1004.7 149.7 L 1007.3 150.5 L 1010.2 149.7 L 1011.5 148.8 L 1013.2 148.9 L 1014.5 150 L 1016.5 153.3 L 1018.5 154.7 L 1021.9 155.5 L 1024.5 156.7 L 1027.8 156.8 L 1030.3 157.9 L 1032 158.7 L 1034.1 158.4 L 1036 156.6 L 1037.6 155.7 L 1040.2 155.3 L 1042 154.6 L 1043.9 152.6 L 1044.8 151.6 L 1045.4 151.3 L 1047.3 150.7 L 1050 150.1 L 1051.2 148.8 L 1052.1 148 L 1053 148.3 L 1054 149.1 L 1055.3 150.2 L 1056.8 152.3 L 1058.2 152.7 L 1059 153.2 L 1060 153.6 L 1061.8 153 L 1063.3 152.1 L 1064.7 151.4 L 1066.1 150.6 L 1068.1 149.5 L 1069.4 148.6 L 1071 147 L 1072 145.6 L 1072 145.1 L 1071.8 144" fill="none" stroke="#d77560" stroke-width="22" stroke-linecap="round" stroke-linejoin="round"/></g><g fill="none" stroke-linecap="round" stroke-linejoin="round"><g stroke="#fff7f1" stroke-width="12" opacity="0.88"><path d="M 129.8 575.7 L 130.3 575.9 L 130.4 575.5 L 130.9 576 L 131.1 575.7 L 131.3 575.8 L 131.5 575.8 L 131.7 575.7 L 131.7 575.5 L 131.7 575.1 L 131.7 574.4 L 131.9 574.3 L 132.4 574.3 L 132.9 574.4 L 133.3 574.4 L 133.7 574.3 L 134 574.2 L 134.7 574.2 L 134.9 574.3 L 135.1 574.3 L 135.6 574.2 L 136 574 L 136.3 573.9 L 136.6 573.8 L 136.9 573.7 L 137.4 573.5 L 138 573.3 L 138.5 573.2 L 139 573.1 L 139.6 573.1 L 140 573 L 140.3 572.9 L 140.9 572.8 L 141.7 572.6 L 142.5 572.4 L 142.7 571.7 L 142.8 570.6 L 142.8 570.1 L 142.8 570 L 143.1 570 L 143.5 570 L 143.6 570 L 144.3 570 L 144.5 569.9 L 144.8 569.8 L 145.2 569.6 L 145.4 569.5 L 146 569.2 L 146.9 568.6 L 147.8 567.8 L 148.7 566.9 L 149.3 566.4 L 149.7 566 L 150.7 565 L 151.4 564.1 L 152.2 561.8 L 153.5 558.9 L 155.2 555.7 L 156.1 554.4 L 157.7 552.8 L 159.7 550.4 L 161.4 548.8 L 162.3 547.7 L 163 546 L 164.5 543.3 L 166.5 539.9 L 168.2 538 L 169.6 537.1 L 171.2 536.1 L 171.8 535.5 L 174.4 531.5 L 175.1 530.1 L 176.3 527.4 L 178.3 522.7 L 179 521 L 179.3 519.7 L 179.5 518.2 L 179.5 514 L 179.5 511.9 L 179.6 511.1 L 179.8 510.2 L 180.4 509.1 L 181.2 507.8 L 181.8 506.5 L 181.9 505.5 L 182 503.3 L 182.1 502.5 L 182.5 501.7 L 183.9 498.8 L 185 496.7 L 185.2 495.7 L 185.2 490 L 185.3 484.4 L 185.4 480 L 185.6 474.6 L 185.7 472.4 L 185.8 467.7 L 185.8 465.3 L 185.9 461.9 L 186 460.5 L 186.1 457.8 L 186.3 457.4 L 186.6 457.2 L 187.1 457.3 L 187.4 457.2 L 187.6 456.8 L 188 455.9 L 188.2 455.2 L 188.3 455 L 188.3 454.9 L 188.3 454.8 L 188.3 454.8 L 188.2 454.8 L 188.1 454.9 L 188.2 455.1 L 188.2 455.2 L 188.3 455.2 L 188.5 454.6 L 188.5 453.9 L 188.6 453 L 188.6 452.7 L 188.8 451.8 L 189.5 451.6 L 189.6 451 L 189.6 450.7 L 189.6 450.3 L 189.5 449 L 189.5 448.4 L 189.4 447.8 L 189.4 446.7 L 189.5 445.6 L 189.6 445 L 189.9 443.6 L 190.3 442 L 190.4 441.4 L 190.4 440.3 L 190.4 439.4 L 190.4 438.4 L 189.7 438.4 L 189.5 437.9" class="route-preview__segment"/><path d="M 189.5 437.9 L 189.3 437.3 L 189.6 437.4 L 190.2 437.4 L 190.5 437.9 L 190.5 438.7 L 190.5 439.6 L 190.4 440.8 L 190.4 441.4 L 190.3 441.8 L 190.2 442.4 L 189.9 443.6 L 189.6 445 L 189.5 445.5 L 189.4 446.8 L 189.5 447.7 L 189.5 448.1 L 189.5 448.8 L 189.6 449.8 L 189.6 450.5 L 189.6 450.9 L 189.5 451.4 L 189.1 451.6 L 188.8 451.8 L 188.6 452.7 L 188.6 453.2 L 188.5 453.9 L 188.5 454.6 L 188.3 455.3 L 187.9 456.2 L 187.6 456.8 L 187.4 457.1 L 187.1 457.3 L 186.7 457.2 L 186.4 457.3 L 186.2 457.8 L 186.1 458.8 L 186 461.3 L 185.9 462.9 L 185.9 464.8 L 185.8 467.7 L 185.7 472.4 L 185.5 475.4 L 185.4 478.6 L 185.4 482.8 L 185.3 487.3 L 185.2 495.6 L 185.1 496.5 L 184.7 497.5 L 183.3 500.2 L 182.3 502 L 182.1 502.9 L 182 503.5 L 181.9 506 L 181.7 506.8 L 181 508.2 L 180.3 509.4 L 179.8 510.5 L 179.6 511.3 L 179.5 512.5 L 179.5 514.6 L 179.5 518.7 L 179.3 520 L 178.9 521.4 L 177.7 524.1 L 176.2 527.8 L 175.1 530.3 L 174.3 531.7 L 172.8 534 L 171.3 536 L 170 536.9 L 168.2 538 L 167 539.3 L 163.6 544.8 L 162.3 547.6 L 161.8 548.4 L 160 550.2 L 158.1 552.5 L 156.4 554.1 L 155.2 555.7 L 153.9 558.1 L 152.6 560.9 L 151.6 563.7 L 151.1 564.8 L 150.7 565.2 L 150.2 565.6 L 149.7 566.1 L 149.3 566.4 L 148.9 566.9 L 147.6 568.1 L 147 568.7 L 146.6 569 L 146 569.4 L 145.3 569.7 L 144.9 569.9 L 144.6 570 L 144.4 570.1 L 143.6 570.1 L 143.4 570.1 L 143 570.1 L 142.9 570.1 L 142.9 570.1 L 142.8 570.1 L 142.8 570.7 L 142.8 571.8 L 142.6 572.4 L 141.9 572.6 L 141 572.8 L 140.5 572.9 L 140.1 573 L 139.6 573.1 L 139.1 573.1 L 138.8 573.2 L 138.4 573.2 L 137.6 573.5 L 137.2 573.6 L 136.7 573.8 L 136.4 573.9 L 136.1 574 L 135.6 574.2 L 135.2 574.4 L 134.8 574.3 L 134.1 574.2 L 133.8 574.3 L 133.4 574.5 L 133.3 574.5 L 132.9 574.5 L 132.5 574.4 L 131.8 574.3 L 131.5 574.3 L 131 574.2 L 130.6 574.2 L 130 574.1 L 129.6 574 L 129.1 574 L 128.8 574 L 128.6 574 L 128.2 573.9 L 128.2 573.4 L 128 573.5" class="route-preview__segment"/><path d="M 128 573.5 L 128 573.5 L 128 573.5 L 128.1 573.5 L 128.2 573.4 L 128.2 573.4 L 128.2 573.4 L 128.2 573.4 L 128.2 573.1 L 128.3 573.1 L 128.3 572.9 L 128.3 572.9 L 128.5 572.7 L 128.5 572.7 L 128.5 572.6 L 128.6 572.5 L 128.8 572.4 L 128.8 572.4 L 128.9 572.4 L 128.9 572.4 L 129 572.4 L 129 572.4 L 129.1 572.3 L 129.1 572.2 L 129.1 572.1 L 129.2 572.1 L 129.3 571.8 L 129.4 571.8 L 129.4 571.7 L 129.4 571.7 L 129.5 571.6 L 129.5 571.6 L 129.5 571.6 L 129.5 571.5 L 129.5 571.5 L 129.6 571.5 L 129.6 571.4 L 129.6 571.1 L 129.5 571.1 L 129.5 571 L 129.5 571 L 129.5 570.9 L 129.5 570.9 L 129.4 570.8 L 129.4 570.8 L 129.4 570.7 L 129.4 570.6 L 129.3 570.5 L 129.3 570.5 L 129.3 570.4 L 129.3 570.4 L 129.3 570.3 L 129.3 570.2 L 129.3 570.1 L 129.3 570 L 129.3 569.8 L 129.3 569.7 L 129.3 569.6 L 129.3 569.6 L 129.3 569.6 L 129.3 569.3 L 129.3 569.2 L 129.3 569.2 L 129.3 569.1 L 129.3 569 L 129.3 568.7 L 129.3 568.4 L 129.3 568.4 L 129.2 568.2 L 129.2 567.9 L 129.2 567 L 129.2 566.3 L 129.2 566 L 129.2 565.8 L 129.2 565.7 L 129.1 565.2 L 129.1 565 L 129.1 564.9 L 129.1 564.7 L 129 564.1 L 129 563.4 L 129 563.3 L 128.9 563 L 128.9 562.9 L 128.9 562.5 L 128.9 562.4 L 128.9 562.4 L 128.9 562.2 L 128.9 561.7 L 128.9 561.1 L 128.9 560.9 L 128.9 560.2 L 128.9 560.2 L 128.9 560.1 L 128.9 560 L 128.9 560 L 128.9 559.9 L 129 559.9 L 129 559.8 L 129 559.8 L 129 559.7 L 129 559.7 L 129 559.5 L 129 559.2 L 129 559.2 L 129 559.2 L 129 559.1 L 129 559.1 L 129.1 559 L 129.3 558.9 L 129.3 558.9 L 129.4 558.9 L 129.4 558.9 L 129.4 558.9 L 129.4 558.9 L 129.4 558.9 L 129.4 558.9 L 129.4 558.9 L 129.4 559 L 129.4 559 L 129.4 559 L 129.4 559.1 L 129.4 559.1 L 129.4 559.2 L 129.4 559.3 L 129.4 559.3 L 129.3 559.4 L 129.3 559.4 L 129.3 559.4 L 129.3 559.3 L 129.2 559.2 L 129.2 559.2 L 129.2 559.1 L 129.4 559 L 129.4 559 L 129.4 558.9 L 129.4 558.9 L 129.5 558.8 L 129.5 558.7 L 129.5 558.7" class="route-preview__segment"/><path d="M 129.5 558.7 L 130.2 555.3 L 130.8 552.5 L 132.4 548.5 L 134.3 544.7 L 135.8 541.9 L 137 538.4 L 138.9 535.2 L 141 532.2 L 142 527.3 L 142.3 523.3 L 142.8 517.3 L 142.9 515.6 L 155.1 500.9 L 159.8 502.4 L 163 499.5 L 167.2 488.8 L 174.7 483.2 L 177.4 471.9 L 178.9 467.6 L 185.8 462.1 L 196 461.5 L 204 450.3 L 207.6 446.4 L 211.7 444 L 215.9 454.5 L 224.1 456.7 L 231.4 450.8 L 232.9 452.5 L 232.8 456.9 L 235.7 460.9 L 241.3 459.8 L 249.1 468.8 L 254.9 473.5 L 263.8 476.4 L 275.5 479.8 L 284.6 481.1 L 292.7 475.5 L 302 476.9 L 312.6 479.6 L 331.7 479.4 L 343.7 464.5 L 347.7 445.2 L 352.9 433.5 L 367.6 425.7 L 378.1 421.7 L 383.7 427.1 L 387.2 430.9 L 390.6 430.7 L 395.4 433.6 L 401.6 431.5 L 419.7 420.8 L 437.8 419.5 L 445.8 421.5 L 453.1 422.1 L 456.6 423.7 L 462.6 424.5 L 467.8 425.9 L 470.8 423.7 L 474.3 424.8 L 485 436.3 L 491.2 437.9 L 498 435.4 L 503.4 428.3 L 508.8 424.1 L 515.6 428 L 517.8 439.4 L 521.3 452.8 L 524.1 465.5 L 529.9 479.6 L 549.6 493.4 L 561.7 491.6 L 569.7 482 L 578 477.4 L 584.2 474.6 L 592.3 477.8 L 604.4 483.7 L 611.6 490.8 L 619.1 501.3 L 633.5 510.7 L 644.4 512.8 L 654.1 516 L 661.9 518.6 L 670.1 518.9 L 679.3 518.4 L 691.2 510.8 L 700 512.3 L 714.6 510.1 L 724.1 504 L 739 492.5 L 747.1 484.5 L 753 473.4 L 758.3 447.5 L 767.5 435.3 L 774.2 426.7 L 781.7 423.9 L 791 415.6 L 796.2 407.1 L 801.1 392.6 L 807.3 382.9 L 813.9 374.9 L 827.5 367.1 L 836.1 357.1 L 845.4 356 L 853.9 362.4 L 862.4 372.4 L 873.7 376.6 L 882 377.1 L 888.4 372.3 L 891.2 359.3 L 891.1 347 L 895.8 335.3 L 896.2 328.3 L 899.2 320.1 L 904.7 315.2 L 908.3 307.1 L 910 297.6 L 912.4 292.1 L 914.6 289.3 L 918 291.3 L 921.4 286.6 L 924.8 287.1 L 932.5 285.5 L 935.5 284.9 L 938.4 283.6 L 939.8 286.6 L 944.9 290.5 L 949.3 291.8 L 951.6 294.1 L 950.6 293.2 L 949.9 295.5 L 950.2 305.7 L 948.9 309.1 L 949 312.8 L 949.9 318 L 951.1 320.8 L 952 325.2 L 952.3 328.1 L 951.5 330.5 L 950.7 332.2" class="route-preview__segment"/><path d="M 950.7 332.2 L 950.7 332.3 L 950.7 332.3 L 950.6 332.5 L 950.6 332.5 L 950.6 332.7 L 950.6 332.9 L 950.6 333 L 950.6 333.1 L 950.5 333.5 L 950.5 333.5 L 950.6 333.5 L 950.7 333.6 L 950.4 334.2 L 950.3 334.6 L 950 335.6 L 949.9 335.8 L 949.8 336.2 L 949.8 336.2 L 949.7 336.2 L 949.5 336.3 L 949.4 336.3 L 949.3 336.4 L 949.2 336.4 L 949.2 336.4 L 949.1 336.4 L 949.1 336.5 L 948.9 336.5 L 948.9 336.5 L 948.7 336.5 L 948.7 336.5 L 948.6 336.5 L 948.5 336.5 L 948.5 336.5 L 948.4 336.4 L 948.3 336.4 L 948.1 336.3 L 947.8 336.1 L 947.7 336.1 L 947.7 336.1 L 947.7 336 L 947.6 336 L 947.5 336 L 947.5 336 L 947.2 336.1 L 947.1 336.1 L 946.9 336.1 L 946.8 336.2 L 946.6 336.2 L 946.5 336.2 L 946.1 336 L 946.1 336 L 946 336 L 945.8 336.1 L 945.7 336.2 L 945.7 336.2 L 945.7 336.2 L 945.6 336.3 L 945.4 336.5 L 945.3 336.6 L 945.3 336.7 L 945.1 336.9 L 945.1 336.9 L 945 337 L 944.9 337.1 L 944.9 337.1 L 944.9 337.2 L 944.9 337.2 L 944.9 337.2 L 944.8 337.3 L 944.8 337.3 L 944.8 337.4 L 944.8 337.5 L 944.8 337.6 L 944.7 337.6 L 944.7 337.7 L 944.6 337.7 L 944.5 337.9 L 944.4 338 L 944.3 338.1 L 944.2 338.1 L 944.1 338.2 L 944.1 338.3 L 944.1 338.3 L 944 338.4 L 944 338.6 L 943.9 338.8 L 943.8 338.9 L 943.8 339 L 943.7 339.2 L 943.7 339.3 L 943.6 339.5 L 943.4 339.7 L 943.3 340 L 943.1 340.1 L 943.1 340.2 L 943 340.3 L 942.8 340.5 L 942.7 340.6 L 942.6 340.7 L 942.6 340.8 L 942.4 340.9 L 942.3 340.9 L 942.1 341 L 942 341.1 L 941.8 341.1 L 941.8 341.2 L 941.6 341.4 L 941.5 341.5 L 941.4 341.6 L 941.3 341.6 L 941.3 341.6 L 941.2 341.6 L 941 341.8 L 940.9 341.8 L 940.9 341.8 L 940.8 341.8 L 940.7 341.8 L 940.6 341.7 L 940.6 341.7 L 940.6 341.7 L 940.5 341.6 L 940.4 341.6 L 940.4 341.6 L 940.3 341.6 L 940 341.7 L 939.9 341.7 L 939.9 341.7 L 939.8 341.7 L 939.7 341.8 L 939.7 341.8 L 939.7 341.8 L 939.6 341.8 L 939.6 341.8 L 939.6 341.9 L 939.5 341.9 L 939.5 341.9 L 939.4 342.1 L 939.4 342.2" class="route-preview__segment"/><path d="M 939.4 342.2 L 938.8 342.6 L 938.4 342.4 L 938 342.1 L 937.6 342.2 L 937.4 342 L 937.2 342 L 937 342.2 L 936.6 342.2 L 936.2 342.1 L 935.7 342 L 935.6 341.5 L 935.4 341.4 L 935 342.1 L 934.7 342.1 L 934.5 342 L 934.4 341.7 L 934.5 341.4 L 934.4 341.4 L 934.4 341.5 L 934 341.7 L 933.5 341.6 L 933.5 341.3 L 933.3 341.2 L 933.2 341.6 L 933 341.1 L 932.5 340.7 L 932.4 340 L 932.1 339.8 L 931.9 340.1 L 931.7 339.8 L 931.4 339.5 L 931.2 339.6 L 931 338.9 L 930.7 338.3 L 930.5 338.2 L 930.2 337.7 L 929.7 337.2 L 929.4 336.8 L 929.2 336.8 L 929 336.6 L 928.7 336.5 L 928.1 336 L 928.1 334.6 L 927.9 334 L 927.5 333 L 926.8 331.8 L 926.2 331.6 L 925.8 331.5 L 925.3 331.2 L 925 330.4 L 924.4 330.7 L 924 330.8 L 923.5 330.6 L 923 330.4 L 922.3 329.5 L 922 329.2 L 921.8 328.8 L 921.4 328.6 L 920.7 327.9 L 919.7 326.9 L 919 325.6 L 918.8 324.8 L 918.1 323.9 L 917.5 323.6 L 916.6 322.7 L 916 322.5 L 915.6 322.9 L 914.9 323 L 914.1 325.2 L 914 325 L 914.4 322.5 L 912.5 320.3 L 912 320.6 L 911.9 320.3 L 912.1 320 L 911.8 319.5 L 911.9 319.1 L 911.8 318.6 L 911.4 317.6 L 911.3 317.8 L 911.5 318.6 L 910.9 318.3 L 910.8 318.9 L 910.7 318.4 L 910.9 317.9 L 910.5 317.5 L 910.3 316.7 L 910.1 316.7 L 910 317.8 L 909.4 317.9 L 909.3 318.3 L 908.8 318.1 L 908.1 317.9 L 907.7 318.3 L 907.3 317.9 L 907.1 318.8 L 906.9 319.3 L 906 318.9 L 905.1 318.6 L 904.5 316.8 L 903.4 314.5 L 902.1 312 L 900.4 310.4 L 899.3 309.4 L 898.7 308.4 L 898.5 307.3 L 897.2 305.3 L 896.3 304.3 L 895.6 303.9 L 894.6 302.1 L 893.6 300 L 891.8 297.1 L 891 295.6 L 889.1 292.8 L 887.8 289.5 L 885.9 286.9 L 884.5 286 L 883 286 L 882.6 285.8 L 882.1 285.1 L 882 283.8 L 882.3 282.2 L 881.9 280.4 L 879.7 266.9 L 879.9 264.8 L 880.5 260.5 L 880 256.9 L 879.2 255.5 L 877.8 254.4 L 872.2 248.7 L 869.6 246 L 867.1 244.4 L 865.9 242.1 L 864.9 238.4 L 864.8 236.7 L 864.9 234.2 L 861.9 233.6 L 861.5 231.8 L 862.2 230.8" class="route-preview__segment"/><path d="M 862.2 230.8 L 863.9 231.4 L 865.5 232.5 L 865.7 231.3 L 866.4 230.5 L 868.1 229.5 L 869.9 227.6 L 872.2 226.3 L 874.2 224.6 L 875.9 224.3 L 877.4 224.2 L 878.5 223.1 L 879.5 221 L 881.1 219.3 L 882.7 216.8 L 884 213.3 L 885.2 211.6 L 887 210.3 L 888.8 208.6 L 891.9 207.2 L 893.1 205.2 L 895 199.9 L 896.6 197.7 L 900.5 192.9 L 900.7 191.6 L 899.8 190 L 899.3 188.6 L 898.9 186 L 897.7 183.8 L 897.4 182 L 898 181.2 L 899 180.2 L 900.2 179.7 L 900.8 178.6 L 901.5 176.1 L 903 174.6 L 904.9 174.6 L 907.4 176 L 908.8 176 L 910.1 175.2 L 911.7 175 L 913.5 174 L 914.7 174.3 L 916.2 176.4 L 917.9 178.3 L 919.6 178.1 L 925.3 173 L 926.3 170.2 L 927.4 168.7 L 929.3 168.5 L 931.1 168.4 L 932.5 168.7 L 934.4 169 L 936.1 168.5 L 937.4 168.6 L 938.5 169.6 L 940 171.8 L 941.5 173.4 L 943 173.5 L 944.8 173.1 L 945.8 173.3 L 947 173.7 L 947.8 174.1 L 948.4 175.1 L 949.7 175.7 L 951.1 175.7 L 952.2 176 L 953.2 175 L 954.2 173.1 L 955.1 173 L 957.3 174.4 L 958.8 174.9 L 959.8 174 L 961 172.7 L 961.7 170.9 L 962.6 168.1 L 965.3 165.9 L 968.2 165.3 L 969.9 165.4 L 971.1 165.2 L 972.5 165.1 L 973.4 165.3 L 974.9 164.9 L 975.7 164 L 975.8 162 L 976.4 159.7 L 977.9 158.3 L 980.6 155.8 L 983 154.1 L 984.9 152.2 L 986.8 149.9 L 988.3 149.3 L 990.2 149.5 L 993.3 149.4 L 995.8 150.2 L 997.9 150.4 L 1000.4 148.4 L 1002.4 148 L 1004.7 149.7 L 1007.3 150.5 L 1010.2 149.7 L 1011.5 148.8 L 1013.2 148.9 L 1014.5 150 L 1016.5 153.3 L 1018.5 154.7 L 1021.9 155.5 L 1024.5 156.7 L 1027.8 156.8 L 1030.3 157.9 L 1032 158.7 L 1034.1 158.4 L 1036 156.6 L 1037.6 155.7 L 1040.2 155.3 L 1042 154.6 L 1043.9 152.6 L 1044.8 151.6 L 1045.4 151.3 L 1047.3 150.7 L 1050 150.1 L 1051.2 148.8 L 1052.1 148 L 1053 148.3 L 1054 149.1 L 1055.3 150.2 L 1056.8 152.3 L 1058.2 152.7 L 1059 153.2 L 1060 153.6 L 1061.8 153 L 1063.3 152.1 L 1064.7 151.4 L 1066.1 150.6 L 1068.1 149.5 L 1069.4 148.6 L 1071 147 L 1072 145.6 L 1072 145.1 L 1071.8 144" class="route-preview__segment"/></g><g stroke="url(#routeGlow)" stroke-width="6"><path d="M 129.8 575.7 L 130.3 575.9 L 130.4 575.5 L 130.9 576 L 131.1 575.7 L 131.3 575.8 L 131.5 575.8 L 131.7 575.7 L 131.7 575.5 L 131.7 575.1 L 131.7 574.4 L 131.9 574.3 L 132.4 574.3 L 132.9 574.4 L 133.3 574.4 L 133.7 574.3 L 134 574.2 L 134.7 574.2 L 134.9 574.3 L 135.1 574.3 L 135.6 574.2 L 136 574 L 136.3 573.9 L 136.6 573.8 L 136.9 573.7 L 137.4 573.5 L 138 573.3 L 138.5 573.2 L 139 573.1 L 139.6 573.1 L 140 573 L 140.3 572.9 L 140.9 572.8 L 141.7 572.6 L 142.5 572.4 L 142.7 571.7 L 142.8 570.6 L 142.8 570.1 L 142.8 570 L 143.1 570 L 143.5 570 L 143.6 570 L 144.3 570 L 144.5 569.9 L 144.8 569.8 L 145.2 569.6 L 145.4 569.5 L 146 569.2 L 146.9 568.6 L 147.8 567.8 L 148.7 566.9 L 149.3 566.4 L 149.7 566 L 150.7 565 L 151.4 564.1 L 152.2 561.8 L 153.5 558.9 L 155.2 555.7 L 156.1 554.4 L 157.7 552.8 L 159.7 550.4 L 161.4 548.8 L 162.3 547.7 L 163 546 L 164.5 543.3 L 166.5 539.9 L 168.2 538 L 169.6 537.1 L 171.2 536.1 L 171.8 535.5 L 174.4 531.5 L 175.1 530.1 L 176.3 527.4 L 178.3 522.7 L 179 521 L 179.3 519.7 L 179.5 518.2 L 179.5 514 L 179.5 511.9 L 179.6 511.1 L 179.8 510.2 L 180.4 509.1 L 181.2 507.8 L 181.8 506.5 L 181.9 505.5 L 182 503.3 L 182.1 502.5 L 182.5 501.7 L 183.9 498.8 L 185 496.7 L 185.2 495.7 L 185.2 490 L 185.3 484.4 L 185.4 480 L 185.6 474.6 L 185.7 472.4 L 185.8 467.7 L 185.8 465.3 L 185.9 461.9 L 186 460.5 L 186.1 457.8 L 186.3 457.4 L 186.6 457.2 L 187.1 457.3 L 187.4 457.2 L 187.6 456.8 L 188 455.9 L 188.2 455.2 L 188.3 455 L 188.3 454.9 L 188.3 454.8 L 188.3 454.8 L 188.2 454.8 L 188.1 454.9 L 188.2 455.1 L 188.2 455.2 L 188.3 455.2 L 188.5 454.6 L 188.5 453.9 L 188.6 453 L 188.6 452.7 L 188.8 451.8 L 189.5 451.6 L 189.6 451 L 189.6 450.7 L 189.6 450.3 L 189.5 449 L 189.5 448.4 L 189.4 447.8 L 189.4 446.7 L 189.5 445.6 L 189.6 445 L 189.9 443.6 L 190.3 442 L 190.4 441.4 L 190.4 440.3 L 190.4 439.4 L 190.4 438.4 L 189.7 438.4 L 189.5 437.9" class="route-preview__segment"/><path d="M 189.5 437.9 L 189.3 437.3 L 189.6 437.4 L 190.2 437.4 L 190.5 437.9 L 190.5 438.7 L 190.5 439.6 L 190.4 440.8 L 190.4 441.4 L 190.3 441.8 L 190.2 442.4 L 189.9 443.6 L 189.6 445 L 189.5 445.5 L 189.4 446.8 L 189.5 447.7 L 189.5 448.1 L 189.5 448.8 L 189.6 449.8 L 189.6 450.5 L 189.6 450.9 L 189.5 451.4 L 189.1 451.6 L 188.8 451.8 L 188.6 452.7 L 188.6 453.2 L 188.5 453.9 L 188.5 454.6 L 188.3 455.3 L 187.9 456.2 L 187.6 456.8 L 187.4 457.1 L 187.1 457.3 L 186.7 457.2 L 186.4 457.3 L 186.2 457.8 L 186.1 458.8 L 186 461.3 L 185.9 462.9 L 185.9 464.8 L 185.8 467.7 L 185.7 472.4 L 185.5 475.4 L 185.4 478.6 L 185.4 482.8 L 185.3 487.3 L 185.2 495.6 L 185.1 496.5 L 184.7 497.5 L 183.3 500.2 L 182.3 502 L 182.1 502.9 L 182 503.5 L 181.9 506 L 181.7 506.8 L 181 508.2 L 180.3 509.4 L 179.8 510.5 L 179.6 511.3 L 179.5 512.5 L 179.5 514.6 L 179.5 518.7 L 179.3 520 L 178.9 521.4 L 177.7 524.1 L 176.2 527.8 L 175.1 530.3 L 174.3 531.7 L 172.8 534 L 171.3 536 L 170 536.9 L 168.2 538 L 167 539.3 L 163.6 544.8 L 162.3 547.6 L 161.8 548.4 L 160 550.2 L 158.1 552.5 L 156.4 554.1 L 155.2 555.7 L 153.9 558.1 L 152.6 560.9 L 151.6 563.7 L 151.1 564.8 L 150.7 565.2 L 150.2 565.6 L 149.7 566.1 L 149.3 566.4 L 148.9 566.9 L 147.6 568.1 L 147 568.7 L 146.6 569 L 146 569.4 L 145.3 569.7 L 144.9 569.9 L 144.6 570 L 144.4 570.1 L 143.6 570.1 L 143.4 570.1 L 143 570.1 L 142.9 570.1 L 142.9 570.1 L 142.8 570.1 L 142.8 570.7 L 142.8 571.8 L 142.6 572.4 L 141.9 572.6 L 141 572.8 L 140.5 572.9 L 140.1 573 L 139.6 573.1 L 139.1 573.1 L 138.8 573.2 L 138.4 573.2 L 137.6 573.5 L 137.2 573.6 L 136.7 573.8 L 136.4 573.9 L 136.1 574 L 135.6 574.2 L 135.2 574.4 L 134.8 574.3 L 134.1 574.2 L 133.8 574.3 L 133.4 574.5 L 133.3 574.5 L 132.9 574.5 L 132.5 574.4 L 131.8 574.3 L 131.5 574.3 L 131 574.2 L 130.6 574.2 L 130 574.1 L 129.6 574 L 129.1 574 L 128.8 574 L 128.6 574 L 128.2 573.9 L 128.2 573.4 L 128 573.5" class="route-preview__segment"/><path d="M 128 573.5 L 128 573.5 L 128 573.5 L 128.1 573.5 L 128.2 573.4 L 128.2 573.4 L 128.2 573.4 L 128.2 573.4 L 128.2 573.1 L 128.3 573.1 L 128.3 572.9 L 128.3 572.9 L 128.5 572.7 L 128.5 572.7 L 128.5 572.6 L 128.6 572.5 L 128.8 572.4 L 128.8 572.4 L 128.9 572.4 L 128.9 572.4 L 129 572.4 L 129 572.4 L 129.1 572.3 L 129.1 572.2 L 129.1 572.1 L 129.2 572.1 L 129.3 571.8 L 129.4 571.8 L 129.4 571.7 L 129.4 571.7 L 129.5 571.6 L 129.5 571.6 L 129.5 571.6 L 129.5 571.5 L 129.5 571.5 L 129.6 571.5 L 129.6 571.4 L 129.6 571.1 L 129.5 571.1 L 129.5 571 L 129.5 571 L 129.5 570.9 L 129.5 570.9 L 129.4 570.8 L 129.4 570.8 L 129.4 570.7 L 129.4 570.6 L 129.3 570.5 L 129.3 570.5 L 129.3 570.4 L 129.3 570.4 L 129.3 570.3 L 129.3 570.2 L 129.3 570.1 L 129.3 570 L 129.3 569.8 L 129.3 569.7 L 129.3 569.6 L 129.3 569.6 L 129.3 569.6 L 129.3 569.3 L 129.3 569.2 L 129.3 569.2 L 129.3 569.1 L 129.3 569 L 129.3 568.7 L 129.3 568.4 L 129.3 568.4 L 129.2 568.2 L 129.2 567.9 L 129.2 567 L 129.2 566.3 L 129.2 566 L 129.2 565.8 L 129.2 565.7 L 129.1 565.2 L 129.1 565 L 129.1 564.9 L 129.1 564.7 L 129 564.1 L 129 563.4 L 129 563.3 L 128.9 563 L 128.9 562.9 L 128.9 562.5 L 128.9 562.4 L 128.9 562.4 L 128.9 562.2 L 128.9 561.7 L 128.9 561.1 L 128.9 560.9 L 128.9 560.2 L 128.9 560.2 L 128.9 560.1 L 128.9 560 L 128.9 560 L 128.9 559.9 L 129 559.9 L 129 559.8 L 129 559.8 L 129 559.7 L 129 559.7 L 129 559.5 L 129 559.2 L 129 559.2 L 129 559.2 L 129 559.1 L 129 559.1 L 129.1 559 L 129.3 558.9 L 129.3 558.9 L 129.4 558.9 L 129.4 558.9 L 129.4 558.9 L 129.4 558.9 L 129.4 558.9 L 129.4 558.9 L 129.4 558.9 L 129.4 559 L 129.4 559 L 129.4 559 L 129.4 559.1 L 129.4 559.1 L 129.4 559.2 L 129.4 559.3 L 129.4 559.3 L 129.3 559.4 L 129.3 559.4 L 129.3 559.4 L 129.3 559.3 L 129.2 559.2 L 129.2 559.2 L 129.2 559.1 L 129.4 559 L 129.4 559 L 129.4 558.9 L 129.4 558.9 L 129.5 558.8 L 129.5 558.7 L 129.5 558.7" class="route-preview__segment"/><path d="M 129.5 558.7 L 130.2 555.3 L 130.8 552.5 L 132.4 548.5 L 134.3 544.7 L 135.8 541.9 L 137 538.4 L 138.9 535.2 L 141 532.2 L 142 527.3 L 142.3 523.3 L 142.8 517.3 L 142.9 515.6 L 155.1 500.9 L 159.8 502.4 L 163 499.5 L 167.2 488.8 L 174.7 483.2 L 177.4 471.9 L 178.9 467.6 L 185.8 462.1 L 196 461.5 L 204 450.3 L 207.6 446.4 L 211.7 444 L 215.9 454.5 L 224.1 456.7 L 231.4 450.8 L 232.9 452.5 L 232.8 456.9 L 235.7 460.9 L 241.3 459.8 L 249.1 468.8 L 254.9 473.5 L 263.8 476.4 L 275.5 479.8 L 284.6 481.1 L 292.7 475.5 L 302 476.9 L 312.6 479.6 L 331.7 479.4 L 343.7 464.5 L 347.7 445.2 L 352.9 433.5 L 367.6 425.7 L 378.1 421.7 L 383.7 427.1 L 387.2 430.9 L 390.6 430.7 L 395.4 433.6 L 401.6 431.5 L 419.7 420.8 L 437.8 419.5 L 445.8 421.5 L 453.1 422.1 L 456.6 423.7 L 462.6 424.5 L 467.8 425.9 L 470.8 423.7 L 474.3 424.8 L 485 436.3 L 491.2 437.9 L 498 435.4 L 503.4 428.3 L 508.8 424.1 L 515.6 428 L 517.8 439.4 L 521.3 452.8 L 524.1 465.5 L 529.9 479.6 L 549.6 493.4 L 561.7 491.6 L 569.7 482 L 578 477.4 L 584.2 474.6 L 592.3 477.8 L 604.4 483.7 L 611.6 490.8 L 619.1 501.3 L 633.5 510.7 L 644.4 512.8 L 654.1 516 L 661.9 518.6 L 670.1 518.9 L 679.3 518.4 L 691.2 510.8 L 700 512.3 L 714.6 510.1 L 724.1 504 L 739 492.5 L 747.1 484.5 L 753 473.4 L 758.3 447.5 L 767.5 435.3 L 774.2 426.7 L 781.7 423.9 L 791 415.6 L 796.2 407.1 L 801.1 392.6 L 807.3 382.9 L 813.9 374.9 L 827.5 367.1 L 836.1 357.1 L 845.4 356 L 853.9 362.4 L 862.4 372.4 L 873.7 376.6 L 882 377.1 L 888.4 372.3 L 891.2 359.3 L 891.1 347 L 895.8 335.3 L 896.2 328.3 L 899.2 320.1 L 904.7 315.2 L 908.3 307.1 L 910 297.6 L 912.4 292.1 L 914.6 289.3 L 918 291.3 L 921.4 286.6 L 924.8 287.1 L 932.5 285.5 L 935.5 284.9 L 938.4 283.6 L 939.8 286.6 L 944.9 290.5 L 949.3 291.8 L 951.6 294.1 L 950.6 293.2 L 949.9 295.5 L 950.2 305.7 L 948.9 309.1 L 949 312.8 L 949.9 318 L 951.1 320.8 L 952 325.2 L 952.3 328.1 L 951.5 330.5 L 950.7 332.2" class="route-preview__segment"/><path d="M 950.7 332.2 L 950.7 332.3 L 950.7 332.3 L 950.6 332.5 L 950.6 332.5 L 950.6 332.7 L 950.6 332.9 L 950.6 333 L 950.6 333.1 L 950.5 333.5 L 950.5 333.5 L 950.6 333.5 L 950.7 333.6 L 950.4 334.2 L 950.3 334.6 L 950 335.6 L 949.9 335.8 L 949.8 336.2 L 949.8 336.2 L 949.7 336.2 L 949.5 336.3 L 949.4 336.3 L 949.3 336.4 L 949.2 336.4 L 949.2 336.4 L 949.1 336.4 L 949.1 336.5 L 948.9 336.5 L 948.9 336.5 L 948.7 336.5 L 948.7 336.5 L 948.6 336.5 L 948.5 336.5 L 948.5 336.5 L 948.4 336.4 L 948.3 336.4 L 948.1 336.3 L 947.8 336.1 L 947.7 336.1 L 947.7 336.1 L 947.7 336 L 947.6 336 L 947.5 336 L 947.5 336 L 947.2 336.1 L 947.1 336.1 L 946.9 336.1 L 946.8 336.2 L 946.6 336.2 L 946.5 336.2 L 946.1 336 L 946.1 336 L 946 336 L 945.8 336.1 L 945.7 336.2 L 945.7 336.2 L 945.7 336.2 L 945.6 336.3 L 945.4 336.5 L 945.3 336.6 L 945.3 336.7 L 945.1 336.9 L 945.1 336.9 L 945 337 L 944.9 337.1 L 944.9 337.1 L 944.9 337.2 L 944.9 337.2 L 944.9 337.2 L 944.8 337.3 L 944.8 337.3 L 944.8 337.4 L 944.8 337.5 L 944.8 337.6 L 944.7 337.6 L 944.7 337.7 L 944.6 337.7 L 944.5 337.9 L 944.4 338 L 944.3 338.1 L 944.2 338.1 L 944.1 338.2 L 944.1 338.3 L 944.1 338.3 L 944 338.4 L 944 338.6 L 943.9 338.8 L 943.8 338.9 L 943.8 339 L 943.7 339.2 L 943.7 339.3 L 943.6 339.5 L 943.4 339.7 L 943.3 340 L 943.1 340.1 L 943.1 340.2 L 943 340.3 L 942.8 340.5 L 942.7 340.6 L 942.6 340.7 L 942.6 340.8 L 942.4 340.9 L 942.3 340.9 L 942.1 341 L 942 341.1 L 941.8 341.1 L 941.8 341.2 L 941.6 341.4 L 941.5 341.5 L 941.4 341.6 L 941.3 341.6 L 941.3 341.6 L 941.2 341.6 L 941 341.8 L 940.9 341.8 L 940.9 341.8 L 940.8 341.8 L 940.7 341.8 L 940.6 341.7 L 940.6 341.7 L 940.6 341.7 L 940.5 341.6 L 940.4 341.6 L 940.4 341.6 L 940.3 341.6 L 940 341.7 L 939.9 341.7 L 939.9 341.7 L 939.8 341.7 L 939.7 341.8 L 939.7 341.8 L 939.7 341.8 L 939.6 341.8 L 939.6 341.8 L 939.6 341.9 L 939.5 341.9 L 939.5 341.9 L 939.4 342.1 L 939.4 342.2" class="route-preview__segment"/><path d="M 939.4 342.2 L 938.8 342.6 L 938.4 342.4 L 938 342.1 L 937.6 342.2 L 937.4 342 L 937.2 342 L 937 342.2 L 936.6 342.2 L 936.2 342.1 L 935.7 342 L 935.6 341.5 L 935.4 341.4 L 935 342.1 L 934.7 342.1 L 934.5 342 L 934.4 341.7 L 934.5 341.4 L 934.4 341.4 L 934.4 341.5 L 934 341.7 L 933.5 341.6 L 933.5 341.3 L 933.3 341.2 L 933.2 341.6 L 933 341.1 L 932.5 340.7 L 932.4 340 L 932.1 339.8 L 931.9 340.1 L 931.7 339.8 L 931.4 339.5 L 931.2 339.6 L 931 338.9 L 930.7 338.3 L 930.5 338.2 L 930.2 337.7 L 929.7 337.2 L 929.4 336.8 L 929.2 336.8 L 929 336.6 L 928.7 336.5 L 928.1 336 L 928.1 334.6 L 927.9 334 L 927.5 333 L 926.8 331.8 L 926.2 331.6 L 925.8 331.5 L 925.3 331.2 L 925 330.4 L 924.4 330.7 L 924 330.8 L 923.5 330.6 L 923 330.4 L 922.3 329.5 L 922 329.2 L 921.8 328.8 L 921.4 328.6 L 920.7 327.9 L 919.7 326.9 L 919 325.6 L 918.8 324.8 L 918.1 323.9 L 917.5 323.6 L 916.6 322.7 L 916 322.5 L 915.6 322.9 L 914.9 323 L 914.1 325.2 L 914 325 L 914.4 322.5 L 912.5 320.3 L 912 320.6 L 911.9 320.3 L 912.1 320 L 911.8 319.5 L 911.9 319.1 L 911.8 318.6 L 911.4 317.6 L 911.3 317.8 L 911.5 318.6 L 910.9 318.3 L 910.8 318.9 L 910.7 318.4 L 910.9 317.9 L 910.5 317.5 L 910.3 316.7 L 910.1 316.7 L 910 317.8 L 909.4 317.9 L 909.3 318.3 L 908.8 318.1 L 908.1 317.9 L 907.7 318.3 L 907.3 317.9 L 907.1 318.8 L 906.9 319.3 L 906 318.9 L 905.1 318.6 L 904.5 316.8 L 903.4 314.5 L 902.1 312 L 900.4 310.4 L 899.3 309.4 L 898.7 308.4 L 898.5 307.3 L 897.2 305.3 L 896.3 304.3 L 895.6 303.9 L 894.6 302.1 L 893.6 300 L 891.8 297.1 L 891 295.6 L 889.1 292.8 L 887.8 289.5 L 885.9 286.9 L 884.5 286 L 883 286 L 882.6 285.8 L 882.1 285.1 L 882 283.8 L 882.3 282.2 L 881.9 280.4 L 879.7 266.9 L 879.9 264.8 L 880.5 260.5 L 880 256.9 L 879.2 255.5 L 877.8 254.4 L 872.2 248.7 L 869.6 246 L 867.1 244.4 L 865.9 242.1 L 864.9 238.4 L 864.8 236.7 L 864.9 234.2 L 861.9 233.6 L 861.5 231.8 L 862.2 230.8" class="route-preview__segment"/><path d="M 862.2 230.8 L 863.9 231.4 L 865.5 232.5 L 865.7 231.3 L 866.4 230.5 L 868.1 229.5 L 869.9 227.6 L 872.2 226.3 L 874.2 224.6 L 875.9 224.3 L 877.4 224.2 L 878.5 223.1 L 879.5 221 L 881.1 219.3 L 882.7 216.8 L 884 213.3 L 885.2 211.6 L 887 210.3 L 888.8 208.6 L 891.9 207.2 L 893.1 205.2 L 895 199.9 L 896.6 197.7 L 900.5 192.9 L 900.7 191.6 L 899.8 190 L 899.3 188.6 L 898.9 186 L 897.7 183.8 L 897.4 182 L 898 181.2 L 899 180.2 L 900.2 179.7 L 900.8 178.6 L 901.5 176.1 L 903 174.6 L 904.9 174.6 L 907.4 176 L 908.8 176 L 910.1 175.2 L 911.7 175 L 913.5 174 L 914.7 174.3 L 916.2 176.4 L 917.9 178.3 L 919.6 178.1 L 925.3 173 L 926.3 170.2 L 927.4 168.7 L 929.3 168.5 L 931.1 168.4 L 932.5 168.7 L 934.4 169 L 936.1 168.5 L 937.4 168.6 L 938.5 169.6 L 940 171.8 L 941.5 173.4 L 943 173.5 L 944.8 173.1 L 945.8 173.3 L 947 173.7 L 947.8 174.1 L 948.4 175.1 L 949.7 175.7 L 951.1 175.7 L 952.2 176 L 953.2 175 L 954.2 173.1 L 955.1 173 L 957.3 174.4 L 958.8 174.9 L 959.8 174 L 961 172.7 L 961.7 170.9 L 962.6 168.1 L 965.3 165.9 L 968.2 165.3 L 969.9 165.4 L 971.1 165.2 L 972.5 165.1 L 973.4 165.3 L 974.9 164.9 L 975.7 164 L 975.8 162 L 976.4 159.7 L 977.9 158.3 L 980.6 155.8 L 983 154.1 L 984.9 152.2 L 986.8 149.9 L 988.3 149.3 L 990.2 149.5 L 993.3 149.4 L 995.8 150.2 L 997.9 150.4 L 1000.4 148.4 L 1002.4 148 L 1004.7 149.7 L 1007.3 150.5 L 1010.2 149.7 L 1011.5 148.8 L 1013.2 148.9 L 1014.5 150 L 1016.5 153.3 L 1018.5 154.7 L 1021.9 155.5 L 1024.5 156.7 L 1027.8 156.8 L 1030.3 157.9 L 1032 158.7 L 1034.1 158.4 L 1036 156.6 L 1037.6 155.7 L 1040.2 155.3 L 1042 154.6 L 1043.9 152.6 L 1044.8 151.6 L 1045.4 151.3 L 1047.3 150.7 L 1050 150.1 L 1051.2 148.8 L 1052.1 148 L 1053 148.3 L 1054 149.1 L 1055.3 150.2 L 1056.8 152.3 L 1058.2 152.7 L 1059 153.2 L 1060 153.6 L 1061.8 153 L 1063.3 152.1 L 1064.7 151.4 L 1066.1 150.6 L 1068.1 149.5 L 1069.4 148.6 L 1071 147 L 1072 145.6 L 1072 145.1 L 1071.8 144" class="route-preview__segment"/></g></g><g class="route-preview__stop"><circle cx="129.7" cy="575.9" r="17" class="route-preview__stop-halo"/><circle cx="129.7" cy="575.9" r="8.5" class="route-preview__stop-core"/><text x="127.69999999999999" y="603.9" text-anchor="middle" class="route-preview__label">Osaka</text></g><g class="route-preview__stop"><circle cx="189.5" cy="438.1" r="17" class="route-preview__stop-halo"/><circle cx="189.5" cy="438.1" r="8.5" class="route-preview__stop-core"/><text x="199.5" y="422.1" text-anchor="start" class="route-preview__label">Kyoto</text></g><g class="route-preview__stop"><circle cx="128" cy="573.6" r="17" class="route-preview__stop-halo"/><circle cx="128" cy="573.6" r="8.5" class="route-preview__stop-core"/><text x="68" y="591.6" text-anchor="end" class="route-preview__label">Osaka</text></g><g class="route-preview__stop"><circle cx="129.5" cy="558.7" r="17" class="route-preview__stop-halo"/><circle cx="129.5" cy="558.7" r="8.5" class="route-preview__stop-core"/><text x="141.5" y="578.7" text-anchor="start" class="route-preview__label">Shin-Osaka</text></g><g class="route-preview__stop"><circle cx="950.9" cy="332.2" r="17" class="route-preview__stop-halo"/><circle cx="950.9" cy="332.2" r="8.5" class="route-preview__stop-core"/><text x="962.9" y="350.2" text-anchor="start" class="route-preview__label">Odawara</text></g><g class="route-preview__stop"><circle cx="939.5" cy="342.3" r="17" class="route-preview__stop-halo"/><circle cx="939.5" cy="342.3" r="8.5" class="route-preview__stop-core"/><text x="927.5" y="326.3" text-anchor="end" class="route-preview__label">Hakone</text></g><g class="route-preview__stop"><circle cx="862.2" cy="230.8" r="17" class="route-preview__stop-halo"/><circle cx="862.2" cy="230.8" r="8.5" class="route-preview__stop-core"/><text x="876.2" y="214.8" text-anchor="start" class="route-preview__label">Mt. Fuji Area</text></g><g class="route-preview__stop"><circle cx="1071.7" cy="144.1" r="17" class="route-preview__stop-halo"/><circle cx="1071.7" cy="144.1" r="8.5" class="route-preview__stop-core"/><text x="1087.7" y="128.1" text-anchor="start" class="route-preview__label">Tokyo</text></g><g><text x="104" y="118" class="route-preview__eyebrow">STATIC ROUTE PREVIEW</text><text x="104" y="160" class="route-preview__title">Osaka to Tokyo path</text><text x="104" y="194" class="route-preview__meta">Open the live map only when you want pan and zoom.</text></g><style>.route-preview__segment{vector-effect:non-scaling-stroke}.route-preview__stop-halo{fill:rgba(155,60,51,.14)}.route-preview__stop-core{fill:#a74539;stroke:#fff8f2;stroke-width:4}.route-preview__label{font:600 24px 'Zen Kaku Gothic New','Segoe UI',sans-serif;fill:#2f2926;letter-spacing:.01em}.route-preview__eyebrow{font:700 16px 'Zen Kaku Gothic New','Segoe UI',sans-serif;fill:#8d3a2f;letter-spacing:.18em}.route-preview__title{font:700 42px 'Cormorant Garamond','Times New Roman',serif;fill:#241f1c}.route-preview__meta{font:500 20px 'Zen Kaku Gothic New','Segoe UI',sans-serif;fill:#675c56}</style></svg>